<svg width="600" height="600" viewBox="0 0 600 600" fill="none" xmlns="http://www.w3.org/2000/svg">
<path d="M292.266 303.234C292.266 323.297 288.891 340.828 282.141 355.828C275.391 370.734 265.828 382.125 253.453 390C241.078 397.875 226.641 401.812 210.141 401.812C194.016 401.812 179.719 397.875 167.25 390C154.781 382.031 145.078 370.734 138.141 356.109C131.297 341.391 127.781 324.375 127.594 305.062V290.297C127.594 270.609 131.016 253.219 137.859 238.125C144.703 223.031 154.359 211.5 166.828 203.531C179.391 195.469 193.734 191.438 209.859 191.438C226.266 191.438 240.703 195.422 253.172 203.391C265.734 211.266 275.391 222.75 282.141 237.844C288.891 252.844 292.266 270.328 292.266 290.297V303.234ZM265.406 290.016C265.406 265.734 260.531 247.125 250.781 234.188C241.031 221.156 227.391 214.641 209.859 214.641C192.797 214.641 179.344 221.156 169.5 234.188C159.75 247.125 154.734 265.125 154.453 288.188V303.234C154.453 326.766 159.375 345.281 169.219 358.781C179.156 372.188 192.797 378.891 210.141 378.891C227.578 378.891 241.078 372.562 250.641 359.906C260.203 347.156 265.125 328.922 265.406 305.203V290.016Z" fill="black"/>
<circle cx="198.5" cy="339.5" r="24.5" fill="black"/>
<path d="M469.266 303.234C469.266 323.297 465.891 340.828 459.141 355.828C452.391 370.734 442.828 382.125 430.453 390C418.078 397.875 403.641 401.812 387.141 401.812C371.016 401.812 356.719 397.875 344.25 390C331.781 382.031 322.078 370.734 315.141 356.109C308.297 341.391 304.781 324.375 304.594 305.062V290.297C304.594 270.609 308.016 253.219 314.859 238.125C321.703 223.031 331.359 211.5 343.828 203.531C356.391 195.469 370.734 191.438 386.859 191.438C403.266 191.438 417.703 195.422 430.172 203.391C442.734 211.266 452.391 222.75 459.141 237.844C465.891 252.844 469.266 270.328 469.266 290.297V303.234ZM442.406 290.016C442.406 265.734 437.531 247.125 427.781 234.188C418.031 221.156 404.391 214.641 386.859 214.641C369.797 214.641 356.344 221.156 346.5 234.188C336.75 247.125 331.734 265.125 331.453 288.188V303.234C331.453 326.766 336.375 345.281 346.219 358.781C356.156 372.188 369.797 378.891 387.141 378.891C404.578 378.891 418.078 372.562 427.641 359.906C437.203 347.156 442.125 328.922 442.406 305.203V290.016Z" fill="black"/>
<circle cx="375.5" cy="339.5" r="24.5" fill="black"/>
<path d="M508.587 408.035L495.308 361.693L494.994 362.65L485.943 395.296L466.35 392.652L478.907 359.945L499.995 290.178L519.862 292.912L496.387 358.409L533.587 337.431L543.573 350.409L512.263 364.986L527.597 402.758L508.587 408.035Z" fill="black"/>
<path d="M91.2724 408.293L104.548 361.95L104.862 362.907L113.916 395.552L133.508 392.907L120.949 360.201L99.8569 290.435L79.9905 293.17L103.469 358.666L66.2678 337.69L56.2829 350.669L87.5933 365.244L72.2613 403.017L91.2724 408.293Z" fill="black"/>
</svg>
